FILE "Popful Mail (1995)(Sega)(US).img" BINARY
  TRACK 01 MODE1/2352
    INDEX 01 00:00:00
  TRACK 02 AUDIO
    PREGAP 00:02:00
    INDEX 01 39:47:27
  TRACK 03 AUDIO
    INDEX 00 42:07:57
    INDEX 01 42:09:57
  TRACK 04 AUDIO
    INDEX 00 44:33:29
    INDEX 01 44:35:29
